<?xml version="1.0" standalone="no"?><!DOCTYPE svg PUBLIC "-//W3C//DTD SVG 1.1//EN" "http://www.w3.org/Graphics/SVG/1.1/DTD/svg11.dtd"><svg height="500" node-id="1" sillyvg="true" template-height="500" template-width="500" version="1.1" viewBox="0 0 500 500" width="500" xmlns="http://www.w3.org/2000/svg" xmlns:xlink="http://www.w3.org/1999/xlink"><defs node-id="45"></defs><g node-id="148"><path d="M 440.60 268.00 L 439.70 273.50 L 437.80 281.30 L 433.50 293.50 L 430.50 300.40 L 423.50 313.30 L 416.10 324.20 L 410.30 331.50 L 410.50 332.10 L 399.90 344.10 L 392.70 351.30 L 385.70 357.70 L 378.30 363.70 L 371.70 368.60 L 364.70 373.10 L 356.90 377.60 L 348.90 381.60 L 334.30 387.60 L 318.30 392.70 L 299.50 395.70 L 282.90 397.00 L 264.70 396.70 L 253.50 395.80 L 243.20 394.40 L 233.00 392.80 L 222.30 390.50 L 208.00 386.50 L 200.70 384.00 L 193.10 381.10 L 186.10 377.90 L 179.50 374.50 L 173.40 370.90 L 165.60 365.60 L 158.50 360.20 L 152.20 354.60 L 151.30 352.90 L 134.10 333.60 L 128.30 326.00 L 125.30 321.40 L 122.80 316.80 L 121.10 312.50 L 119.30 305.70 L 115.40 288.50 L 114.70 286.20 L 110.20 279.70 L 109.40 276.90 L 109.60 275.50 L 110.20 274.30 L 112.20 272.50 L 115.20 269.10 L 120.30 261.80 L 126.20 252.40 L 132.30 241.90 L 136.90 233.20 L 141.80 221.80 L 143.10 216.70 L 143.60 210.70 L 143.40 210.20 L 142.80 213.10 L 137.40 210.20 L 129.10 204.10 L 120.30 195.70 L 112.50 185.70 L 108.90 180.00 L 105.40 173.50 L 101.20 163.70 L 105.30 160.70 L 109.00 158.70 L 113.90 156.60 L 119.40 154.80 L 126.20 153.30 L 136.20 152.20 L 148.10 152.10 L 154.70 152.70 L 167.90 154.80 L 182.20 158.50 L 196.10 163.20 L 200.00 161.90 L 215.50 154.50 L 222.50 151.60 L 230.80 148.80 L 242.60 146.00 L 249.30 145.00 L 256.00 144.40 L 263.20 144.20 L 270.90 144.60 L 274.30 140.60 L 276.80 139.20 L 278.90 138.80 L 280.20 139.10 L 281.90 140.70 L 283.90 145.20 L 284.80 146.10 L 285.40 145.70 L 286.10 140.20 L 287.30 139.00 L 288.40 138.90 L 289.60 139.20 L 291.70 141.00 L 295.30 147.50 L 296.20 148.30 L 298.20 147.80 L 299.50 147.00 L 302.30 144.30 L 303.00 144.80 L 305.60 148.50 L 307.10 149.80 L 323.80 152.30 L 331.20 153.70 L 337.60 155.50 L 340.20 156.60 L 341.70 157.60 L 349.10 142.70 L 354.30 133.00 L 361.00 121.80 L 365.60 115.20 L 367.80 112.70 L 370.00 110.90 L 370.80 110.70 L 372.50 110.80 L 375.40 112.50 L 379.90 117.00 L 382.80 120.80 L 386.40 126.50 L 390.40 133.70 L 394.30 142.00 L 398.60 153.80 L 400.10 159.30 L 401.90 168.80 L 403.20 182.30 L 403.10 195.30 L 402.10 204.00 L 402.40 205.60 L 411.20 229.30 L 412.80 234.70 L 415.20 244.50 L 416.60 255.60 L 418.40 257.20 L 423.90 260.60 L 433.60 265.20 L 440.60 268.00 Z" fill="#f9f4e1" fill-rule="nonzero" group-id="1" node-id="51" stroke="none" target-height="286.3" target-width="339.40002" target-x="101.2" target-y="110.7"></path></g><g node-id="149"><g node-id="150"><path d="M 440.80 268.50 L 439.70 273.50 L 436.00 284.30 L 429.80 298.80 L 425.80 306.70 L 420.90 315.30 L 415.60 323.70 L 404.60 338.50 L 399.50 344.30 L 394.20 349.70 L 383.00 359.60 L 377.40 363.90 L 368.70 369.80 L 360.30 374.80 L 352.00 379.30 L 337.20 386.10 L 326.40 390.20 L 320.40 392.00 L 315.40 393.20 L 307.30 394.60 L 291.00 396.20 L 281.00 396.60 L 261.10 396.20 L 243.20 394.40 L 233.00 392.80 L 215.30 388.70 L 200.70 384.00 L 193.10 381.10 L 186.10 377.90 L 179.50 374.50 L 173.40 370.90 L 165.60 365.60 L 158.50 360.20 L 152.20 354.60 L 147.40 349.80 L 143.00 345.00 L 136.60 337.10 L 129.20 326.00 L 125.20 318.90 L 121.80 311.90 L 119.30 305.70 L 117.20 299.30 L 114.60 288.40 L 112.40 283.30 L 109.30 277.70 L 109.20 276.50 L 109.80 274.90 L 111.10 273.10 L 119.40 264.50 L 123.80 258.00 L 128.30 250.00 L 136.70 232.20 L 140.20 223.60 L 142.40 217.10 L 142.90 214.80 L 142.90 213.90 L 136.80 210.00 L 131.30 206.00 L 126.30 201.80 L 121.90 197.60 L 117.70 193.10 L 111.20 184.70 L 107.50 178.80 L 104.90 174.00 L 103.00 169.30 L 102.10 166.20 L 101.90 163.40 L 102.20 163.00 L 107.90 159.80 L 113.80 157.20 L 119.80 155.30 L 125.90 153.90 L 132.10 152.90 L 138.20 152.40 L 150.50 152.50 L 161.90 153.70 L 170.40 155.20 L 184.70 158.70 L 198.90 163.30 L 204.20 159.80 L 211.00 156.10 L 217.60 153.10 L 224.40 150.70 L 230.80 148.80 L 239.10 147.00 L 252.80 145.20 L 258.10 145.00 L 270.40 145.30 L 275.90 140.50 L 278.20 139.20 L 279.00 139.20 L 280.70 140.30 L 284.60 145.70 L 287.20 140.30 L 288.70 139.20 L 290.10 139.90 L 295.60 147.00 L 296.90 147.90 L 298.20 147.70 L 299.70 147.10 L 302.80 145.10 L 305.70 148.40 L 308.30 150.30 L 317.20 151.20 L 323.10 152.60 L 336.20 157.10 L 339.30 158.00 L 341.00 158.10 L 341.70 157.70 L 343.70 151.80 L 347.70 143.80 L 353.20 134.10 L 359.90 123.40 L 362.60 119.50 L 367.90 112.70 L 370.10 110.90 L 370.70 110.60 L 372.60 110.80 L 375.20 112.40 L 378.00 115.20 L 387.70 128.00 L 391.60 136.00 L 395.00 144.10 L 397.60 151.60 L 399.70 159.00 L 401.30 165.90 L 402.70 174.80 L 403.30 182.40 L 403.10 193.40 L 402.70 197.10 L 401.40 202.90 L 403.90 206.80 L 405.60 210.40 L 408.50 218.80 L 409.90 223.90 L 413.70 241.30 L 416.20 256.30 L 416.70 257.30 L 417.90 258.40 L 421.50 260.60 L 440.80 268.50 Z" fill="#eaac81" fill-rule="nonzero" group-id="2,3" node-id="58" stroke="none" target-height="286" target-width="338.9" target-x="101.9" target-y="110.6"></path></g><g node-id="151"><path d="M 375.20 123.90 L 376.40 142.70 L 376.50 152.80 L 375.80 162.00 L 375.10 166.00 L 374.20 168.70 L 377.50 170.90 L 379.30 173.40 L 379.90 175.50 L 380.40 184.00 L 393.40 194.90 L 398.50 199.80 L 400.30 201.90 L 401.10 203.60 L 401.80 203.10 L 403.20 199.60 L 404.50 193.70 L 404.80 190.20 L 404.60 182.80 L 398.90 158.80 L 394.80 144.90 L 392.20 137.80 L 389.20 131.10 L 386.90 126.70 L 381.60 119.30 L 378.50 116.10 L 375.20 113.50 L 371.70 111.40 L 373.20 118.00 L 375.20 123.90 Z" fill="#f7f4e3" fill-rule="nonzero" group-id="2,4" node-id="63" stroke="none" target-height="92.200005" target-width="33.099976" target-x="371.7" target-y="111.4"></path></g><g node-id="152"><path d="M 101.60 164.30 L 108.20 165.00 L 113.50 166.00 L 119.20 167.40 L 131.10 171.40 L 142.00 176.40 L 147.40 179.40 L 159.00 187.40 L 159.20 188.20 L 158.50 190.30 L 157.20 192.00 L 155.10 193.80 L 152.60 195.20 L 147.20 196.80 L 146.20 197.40 L 145.60 198.10 L 145.60 198.80 L 147.10 201.80 L 146.90 202.70 L 146.20 203.70 L 143.20 206.10 L 143.80 213.40 L 133.40 206.80 L 128.80 203.40 L 123.70 199.20 L 118.60 194.50 L 113.70 189.30 L 110.60 185.50 L 105.60 177.50 L 103.70 173.20 L 102.30 168.90 L 101.60 164.30 Z" fill="#f7f4e3" fill-rule="nonzero" group-id="2,5" node-id="68" stroke="none" target-height="49.09999" target-width="57.6" target-x="101.6" target-y="164.3"></path></g><g node-id="153"><path d="M 440.80 268.50 L 440.40 271.30 L 437.60 280.70 L 432.60 293.40 L 425.60 308.00 L 421.50 315.50 L 416.10 324.20 L 410.40 332.10 L 405.90 337.50 L 392.70 351.30 L 384.30 358.90 L 371.70 368.60 L 364.60 373.10 L 355.70 378.20 L 348.20 381.90 L 340.10 385.30 L 331.20 388.40 L 317.10 392.20 L 301.10 395.00 L 284.20 396.40 L 265.10 396.30 L 253.20 395.50 L 241.80 394.10 L 230.90 392.20 L 220.60 389.80 L 210.20 386.80 L 200.40 383.30 L 191.20 379.40 L 182.40 375.00 L 173.80 370.10 L 165.80 364.70 L 158.30 359.00 L 151.30 353.00 L 146.10 347.90 L 136.60 337.10 L 128.80 326.10 L 125.20 320.10 L 119.80 309.20 L 117.00 299.90 L 114.60 287.80 L 110.70 279.30 L 119.80 282.00 L 126.00 283.50 L 131.80 284.30 L 134.60 284.30 L 136.40 283.80 L 137.70 282.70 L 142.50 276.90 L 146.10 273.50 L 148.50 272.00 L 151.10 270.90 L 157.40 269.70 L 161.20 265.30 L 165.20 261.50 L 168.90 259.40 L 173.40 258.40 L 176.10 258.40 L 179.60 258.90 L 193.50 262.70 L 230.30 275.60 L 234.00 274.90 L 244.30 270.90 L 248.20 269.70 L 254.90 268.20 L 263.50 267.30 L 268.10 267.30 L 273.00 267.70 L 278.00 268.70 L 283.10 270.20 L 287.00 271.90 L 290.90 274.20 L 293.30 274.00 L 300.90 271.60 L 307.80 268.10 L 312.70 264.30 L 316.10 259.90 L 317.90 258.50 L 321.10 256.70 L 324.80 255.20 L 329.40 253.90 L 336.10 253.10 L 343.20 253.50 L 355.70 256.60 L 362.30 257.70 L 375.20 263.30 L 382.80 265.80 L 397.10 271.60 L 402.30 272.80 L 408.70 272.20 L 435.20 267.80 L 440.10 267.60 L 440.60 267.70 L 440.80 268.50 Z" fill="#f7f4e3" fill-rule="nonzero" group-id="2,6" node-id="73" stroke="none" target-height="143.29999" target-width="330.09998" target-x="110.7" target-y="253.1"></path></g><g node-id="154"><g node-id="155"><path d="M 257.90 315.90 L 247.40 321.70 L 239.50 324.90 L 235.50 326.10 L 231.60 326.80 L 228.00 326.80 L 228.80 328.90 L 230.40 331.20 L 234.80 335.80 L 240.30 339.70 L 243.10 341.10 L 245.70 342.00 L 257.20 343.20 L 269.20 343.50 L 281.50 342.90 L 290.50 341.50 L 295.40 339.70 L 300.20 336.80 L 306.90 331.50 L 310.40 327.70 L 304.80 329.10 L 295.80 330.20 L 290.40 330.40 L 284.80 330.10 L 278.90 329.20 L 275.00 328.10 L 271.30 326.70 L 267.60 324.80 L 264.10 322.40 L 260.90 319.50 L 257.90 315.90 Z" fill="#c46573" fill-rule="nonzero" group-id="2,7,8" node-id="80" stroke="none" target-height="27.600006" target-width="82.399994" target-x="228" target-y="315.9"></path></g><g node-id="156"><path d="M 340.90 207.20 L 334.10 208.30 L 328.10 210.40 L 325.10 211.90 L 322.50 213.90 L 320.90 215.40 L 318.80 219.30 L 318.20 221.50 L 318.20 224.00 L 318.60 227.00 L 319.60 229.80 L 320.80 231.90 L 322.30 233.40 L 324.10 234.50 L 326.10 235.20 L 328.30 235.50 L 331.70 235.30 L 335.20 234.50 L 341.80 231.70 L 344.60 229.90 L 347.70 227.10 L 348.30 225.60 L 347.80 223.80 L 347.00 222.60 L 344.40 220.30 L 349.10 217.50 L 349.80 216.60 L 349.90 215.40 L 349.50 214.80 L 348.10 213.90 L 346.40 213.50 L 341.50 213.90 L 342.40 211.30 L 342.50 210.20 L 341.90 208.10 L 340.90 207.20 Z" fill="#f7f4e3" fill-rule="nonzero" group-id="2,7,9" node-id="85" stroke="none" target-height="28.300003" target-width="31.699982" target-x="318.2" target-y="207.2"></path></g><g node-id="157"><path d="M 197.70 214.60 L 204.80 217.30 L 210.60 221.00 L 213.90 224.40 L 215.20 226.40 L 216.10 228.60 L 216.60 231.10 L 216.50 233.80 L 215.90 236.00 L 214.80 237.80 L 213.30 239.20 L 211.40 240.30 L 206.50 241.70 L 202.40 242.00 L 198.10 241.80 L 193.80 241.10 L 189.80 240.10 L 186.30 238.70 L 183.70 237.10 L 182.40 235.80 L 181.70 234.60 L 181.60 233.40 L 182.20 232.40 L 183.90 231.90 L 185.60 232.20 L 183.20 226.80 L 183.00 225.50 L 183.30 224.20 L 183.80 223.90 L 186.90 223.50 L 191.40 223.70 L 190.70 221.10 L 190.80 219.50 L 191.50 217.40 L 193.50 215.60 L 197.70 214.60 Z" fill="#f7f4e3" fill-rule="nonzero" group-id="2,7,10" node-id="90" stroke="none" target-height="27.399994" target-width="35" target-x="181.6" target-y="214.6"></path></g><path d="M 282.30 331.60 L 278.50 330.60 L 273.80 328.40 L 264.20 322.60 L 255.20 329.80 L 248.40 336.70 L 244.30 342.30 L 241.60 347.80 L 241.00 350.40 L 241.00 354.70 L 242.50 358.10 L 245.40 361.30 L 250.40 364.00 L 254.10 365.30 L 257.80 365.70 L 261.10 365.60 L 264.20 365.10 L 267.20 364.00 L 269.90 362.70 L 272.40 361.00 L 276.70 356.80 L 280.90 350.80 L 282.70 347.10 L 284.10 343.30 L 284.80 340.20 L 285.00 338.00 L 284.60 335.40 L 285.30 333.50 L 285.20 332.80 L 283.90 331.80 L 282.30 331.60 Z" fill="#f38b82" fill-rule="nonzero" group-id="2,7" node-id="93" stroke="none" target-height="43.100006" target-width="44.299988" target-x="241" target-y="322.6"></path><g node-id="158"><g node-id="166"><path d="M 194.00 277.40 L 194.10 280.30 L 193.60 283.00 L 192.60 285.70 L 191.20 288.10 L 189.50 290.20 L 187.30 292.00 L 184.80 293.50 L 182.10 294.50 L 179.10 295.10 L 176.00 295.20 L 173.10 294.80 L 170.40 293.90 L 167.90 292.60 L 165.70 290.90 L 163.80 288.90 L 162.20 286.60 L 161.20 284.00 L 160.60 281.10 L 160.50 278.20 L 161.00 275.50 L 162.00 272.90 L 163.40 270.50 L 165.10 268.40 L 167.30 266.50 L 169.80 265.10 L 172.50 264.00 L 175.50 263.40 L 178.60 263.30 L 181.50 263.70 L 184.20 264.60 L 186.70 265.90 L 188.90 267.60 L 190.80 269.60 L 192.40 272.00 L 193.40 274.50 L 194.00 277.40 Z" fill="#f58d84" fill-rule="nonzero" group-id="2,7,11,19" node-id="99" stroke="none" target-height="31.900024" target-width="33.600006" target-x="160.5" target-y="263.3"></path></g></g><g node-id="159"><g node-id="167"><path d="M 385.40 274.30 L 385.20 278.50 L 384.60 280.50 L 382.40 284.30 L 380.90 286.10 L 377.10 289.10 L 374.90 290.30 L 371.30 291.60 L 367.50 292.30 L 363.60 292.40 L 359.80 292.00 L 357.40 291.30 L 353.00 289.30 L 349.50 286.30 L 347.10 282.70 L 346.40 280.80 L 346.00 278.70 L 346.20 274.60 L 347.70 270.60 L 350.50 266.90 L 354.30 264.00 L 356.50 262.80 L 360.10 261.50 L 363.90 260.70 L 367.80 260.60 L 371.60 261.10 L 374.00 261.70 L 378.40 263.80 L 380.30 265.20 L 383.20 268.40 L 384.30 270.30 L 385.40 274.30 Z" fill="#f58d84" fill-rule="nonzero" group-id="2,7,12,20" node-id="107" stroke="none" target-height="31.799988" target-width="39.399994" target-x="346" target-y="260.6"></path></g></g><g node-id="160"><path d="M 442.50 265.40 L 441.10 264.20 L 440.30 263.90 L 438.20 264.00 L 428.10 260.30 L 423.20 257.80 L 420.00 255.30 L 416.00 234.00 L 413.90 225.10 L 411.60 217.70 L 409.60 212.70 L 405.00 203.50 L 406.60 197.40 L 407.10 194.00 L 407.30 188.90 L 406.70 178.50 L 404.90 167.40 L 403.30 160.70 L 399.40 147.60 L 394.50 135.00 L 391.70 129.20 L 386.60 120.80 L 382.80 115.70 L 379.60 112.30 L 376.50 109.60 L 371.80 106.90 L 370.00 106.80 L 368.50 107.60 L 361.20 116.00 L 358.00 120.50 L 353.50 127.40 L 349.60 134.00 L 343.60 146.00 L 340.10 154.20 L 332.80 151.40 L 322.60 148.70 L 314.30 147.40 L 308.00 146.90 L 304.80 142.00 L 303.30 141.10 L 302.40 141.10 L 300.80 141.60 L 298.90 144.00 L 297.50 145.00 L 294.10 139.10 L 291.80 137.00 L 290.20 136.30 L 288.70 136.00 L 286.50 136.30 L 284.70 137.40 L 284.00 138.40 L 282.10 136.80 L 280.90 136.20 L 277.80 135.70 L 275.00 136.30 L 273.10 137.40 L 271.50 138.60 L 269.20 141.40 L 262.90 141.20 L 250.80 142.00 L 241.90 143.40 L 233.80 145.30 L 226.00 147.60 L 219.50 149.90 L 209.60 154.10 L 197.30 160.20 L 188.80 157.10 L 173.70 152.80 L 166.30 151.30 L 153.60 149.50 L 142.00 149.00 L 129.90 149.80 L 124.20 150.70 L 114.10 153.30 L 105.30 157.00 L 102.10 158.80 L 98.40 161.60 L 97.90 163.40 L 98.10 164.30 L 100.40 170.80 L 103.00 176.60 L 105.70 181.90 L 108.90 186.90 L 115.00 195.30 L 119.90 200.80 L 124.10 204.90 L 129.60 209.60 L 134.00 212.80 L 140.20 216.60 L 139.20 220.40 L 136.00 227.70 L 125.40 248.50 L 120.00 257.70 L 115.80 263.80 L 113.30 266.90 L 108.90 270.70 L 107.30 272.50 L 106.40 274.30 L 106.00 276.20 L 106.20 278.40 L 107.10 280.70 L 110.40 286.40 L 111.50 288.80 L 112.00 290.60 L 112.50 295.70 L 113.20 299.30 L 115.70 307.30 L 120.00 317.00 L 125.60 327.10 L 132.60 337.30 L 136.50 342.20 L 142.80 349.20 L 149.50 355.80 L 156.80 362.10 L 164.60 368.00 L 172.90 373.40 L 181.60 378.30 L 190.90 382.80 L 200.20 386.70 L 210.00 390.10 L 220.30 393.00 L 231.10 395.50 L 242.50 397.50 L 253.50 398.90 L 264.50 399.80 L 277.00 400.20 L 287.50 399.90 L 297.70 399.10 L 308.00 397.70 L 317.70 395.70 L 327.30 393.20 L 335.00 390.70 L 342.60 387.80 L 349.90 384.60 L 357.10 381.00 L 365.70 376.20 L 372.80 371.60 L 379.70 366.60 L 391.70 356.60 L 401.20 347.30 L 407.10 340.60 L 415.10 330.60 L 424.20 317.10 L 428.60 309.70 L 434.90 297.10 L 438.50 288.50 L 440.80 282.20 L 442.90 275.00 L 444.20 267.70 L 443.30 266.00 L 442.50 265.40 Z M 113.30 275.40 L 117.90 271.40 L 123.80 263.70 L 131.10 251.60 L 141.80 230.40 L 145.20 222.80 L 146.50 218.20 L 146.90 213.30 L 146.20 208.10 L 149.20 206.50 L 150.60 204.50 L 150.40 201.80 L 149.10 199.70 L 152.40 198.10 L 154.40 196.70 L 157.60 194.00 L 159.60 191.50 L 168.90 198.90 L 171.00 198.90 L 172.10 198.20 L 172.80 197.20 L 173.10 196.00 L 172.40 193.90 L 170.70 192.20 L 160.50 184.20 L 152.40 178.60 L 140.80 171.70 L 134.40 168.40 L 127.70 165.50 L 123.10 163.90 L 118.70 162.80 L 114.40 162.00 L 113.10 162.10 L 112.00 162.70 L 111.20 163.60 L 110.80 164.80 L 110.90 166.10 L 111.50 167.20 L 112.40 168.00 L 118.60 169.30 L 124.00 171.00 L 129.40 173.20 L 140.20 178.70 L 154.70 187.90 L 150.30 191.80 L 147.60 193.40 L 146.20 193.90 L 143.00 193.10 L 141.90 193.20 L 140.90 193.60 L 139.90 194.50 L 139.30 196.40 L 139.50 197.60 L 140.40 199.30 L 143.10 202.40 L 141.10 203.40 L 140.00 204.30 L 139.30 205.60 L 139.10 207.20 L 139.50 208.80 L 131.90 203.20 L 127.40 199.20 L 119.20 190.40 L 112.90 181.40 L 110.00 176.40 L 107.30 170.80 L 104.90 164.60 L 109.30 162.20 L 116.20 159.40 L 125.90 156.90 L 131.40 156.10 L 138.20 155.50 L 145.50 155.40 L 154.10 156.00 L 166.40 157.80 L 180.50 161.30 L 196.40 166.80 L 198.30 166.90 L 210.20 160.90 L 215.50 158.50 L 229.00 153.50 L 236.70 151.20 L 244.80 149.40 L 253.30 148.10 L 259.00 147.70 L 271.50 147.90 L 273.20 147.00 L 274.90 144.40 L 276.60 142.80 L 278.30 142.20 L 279.20 142.70 L 281.30 147.40 L 283.10 148.80 L 284.70 149.10 L 286.30 148.80 L 287.30 148.00 L 288.60 145.80 L 289.10 143.20 L 292.80 149.50 L 295.30 151.20 L 298.50 151.40 L 299.80 151.00 L 302.10 149.70 L 304.00 152.10 L 306.20 153.20 L 315.30 154.00 L 321.80 155.10 L 327.90 156.60 L 333.60 158.50 L 338.90 160.70 L 344.00 163.40 L 348.80 166.60 L 353.30 170.10 L 357.40 174.00 L 362.10 179.20 L 363.30 179.60 L 364.50 179.50 L 365.70 178.90 L 366.50 177.90 L 366.90 176.70 L 366.80 175.50 L 366.20 174.40 L 362.70 170.30 L 358.90 166.50 L 354.80 163.10 L 350.50 159.90 L 345.80 157.10 L 351.20 144.90 L 357.80 132.60 L 361.90 126.10 L 366.40 119.80 L 371.40 113.90 L 375.50 117.30 L 378.00 120.10 L 381.40 124.60 L 386.00 132.30 L 388.60 137.70 L 391.60 145.00 L 394.40 152.90 L 396.70 160.90 L 398.60 168.90 L 400.00 176.90 L 400.80 184.10 L 400.90 188.80 L 400.30 196.60 L 396.70 192.60 L 392.90 188.90 L 388.70 185.70 L 384.20 182.90 L 384.20 177.60 L 383.00 172.70 L 382.20 171.20 L 380.60 169.30 L 379.10 168.30 L 377.10 167.50 L 378.90 151.90 L 379.50 141.70 L 379.60 135.00 L 379.00 124.20 L 378.60 123.00 L 377.80 122.10 L 376.70 121.50 L 375.40 121.40 L 374.20 121.80 L 373.30 122.60 L 372.70 123.70 L 373.20 135.10 L 373.10 141.50 L 372.50 152.00 L 370.30 170.00 L 370.50 172.00 L 372.00 173.40 L 372.90 173.70 L 375.20 173.70 L 376.00 173.90 L 376.80 174.60 L 377.40 176.00 L 377.90 179.70 L 377.70 185.20 L 378.50 187.00 L 385.30 191.20 L 389.50 194.50 L 393.30 198.30 L 396.80 202.60 L 397.70 204.00 L 397.60 205.00 L 398.40 206.80 L 400.10 207.80 L 403.00 213.50 L 405.50 219.90 L 407.70 226.90 L 409.80 235.30 L 413.70 256.70 L 414.40 258.40 L 415.60 260.10 L 417.30 261.70 L 419.90 263.40 L 425.20 266.10 L 405.00 269.40 L 401.70 269.20 L 394.20 267.50 L 387.10 265.10 L 384.20 263.80 L 380.60 261.70 L 378.20 260.70 L 368.90 258.40 L 367.10 257.70 L 363.50 254.90 L 367.00 252.70 L 367.60 251.60 L 367.70 250.40 L 367.40 249.20 L 366.60 248.20 L 365.50 247.60 L 364.30 247.40 L 363.10 247.80 L 354.80 253.00 L 354.70 251.30 L 354.10 250.20 L 353.10 249.50 L 351.90 249.20 L 350.60 249.30 L 348.10 250.90 L 345.50 250.00 L 342.20 249.40 L 339.80 245.50 L 336.50 242.40 L 332.50 240.30 L 328.00 239.50 L 325.50 239.60 L 322.40 240.20 L 319.60 241.50 L 317.00 243.20 L 314.80 245.50 L 313.10 248.20 L 311.90 251.10 L 311.30 254.10 L 311.40 257.30 L 312.00 260.30 L 308.30 264.00 L 303.00 267.30 L 299.90 268.70 L 291.30 271.20 L 287.60 269.50 L 284.90 267.50 L 281.60 265.90 L 277.80 264.60 L 273.80 263.90 L 269.50 263.60 L 264.70 263.90 L 251.40 265.70 L 243.30 268.00 L 237.60 270.40 L 233.10 272.80 L 230.90 272.50 L 221.00 269.00 L 221.90 266.40 L 222.40 263.60 L 222.40 260.60 L 221.70 257.50 L 220.50 254.60 L 218.70 252.10 L 216.40 249.90 L 213.70 248.10 L 210.90 247.00 L 207.80 246.40 L 204.60 246.50 L 201.50 247.10 L 198.70 248.30 L 196.10 250.10 L 193.90 252.40 L 192.30 254.80 L 191.20 257.40 L 185.10 256.00 L 180.20 255.40 L 176.20 255.20 L 172.30 255.50 L 169.10 256.10 L 166.60 257.00 L 164.20 258.20 L 160.80 260.90 L 156.30 266.60 L 149.10 268.30 L 146.70 269.30 L 142.60 271.90 L 139.50 275.30 L 136.70 279.40 L 135.00 280.60 L 131.80 281.10 L 125.50 280.20 L 113.70 276.60 L 112.50 276.50 L 113.30 275.40 Z M 343.30 256.10 L 343.30 256.20 Z M 434.70 280.40 L 432.50 286.40 L 429.00 294.60 L 423.00 306.70 L 414.50 320.40 L 407.80 329.70 L 402.30 336.50 L 396.50 342.90 L 388.70 350.70 L 382.30 356.40 L 375.80 361.60 L 369.20 366.30 L 362.40 370.70 L 355.40 374.80 L 347.30 378.90 L 332.90 384.70 L 325.50 387.10 L 316.30 389.50 L 306.80 391.40 L 296.70 392.80 L 286.40 393.60 L 275.80 393.90 L 264.90 393.50 L 254.10 392.60 L 243.60 391.30 L 232.50 389.30 L 222.10 386.90 L 212.10 384.10 L 202.70 380.80 L 193.70 377.10 L 184.80 372.80 L 176.30 368.00 L 168.40 362.80 L 160.90 357.20 L 153.80 351.10 L 147.40 344.80 L 141.40 338.10 L 134.40 328.90 L 128.00 318.50 L 123.70 310.00 L 121.70 305.10 L 119.30 297.40 L 118.30 289.40 L 116.60 284.40 L 124.40 286.60 L 128.40 287.30 L 132.00 287.50 L 134.90 287.30 L 137.40 286.60 L 139.60 285.40 L 141.20 284.00 L 144.70 279.10 L 147.70 276.10 L 150.20 274.80 L 153.20 273.80 L 158.70 272.70 L 159.90 272.00 L 165.40 265.40 L 167.30 263.90 L 170.00 262.60 L 172.00 262.00 L 177.90 261.60 L 185.30 262.60 L 190.40 263.80 L 191.00 267.00 L 192.00 269.50 L 193.40 271.80 L 187.80 268.50 L 183.80 266.80 L 180.40 265.80 L 177.50 265.50 L 176.20 265.70 L 175.20 266.40 L 174.50 267.40 L 174.20 268.60 L 174.40 269.90 L 175.10 270.90 L 176.10 271.60 L 179.60 272.20 L 184.90 274.30 L 192.40 278.90 L 196.70 282.00 L 197.80 282.20 L 199.10 281.90 L 200.20 281.10 L 201.00 279.20 L 200.50 277.30 L 203.30 278.10 L 208.20 278.30 L 213.00 277.00 L 217.10 274.40 L 225.90 277.60 L 222.90 280.20 L 222.10 281.30 L 221.90 282.50 L 222.10 283.60 L 222.80 284.70 L 223.90 285.40 L 225.10 285.70 L 226.30 285.50 L 227.40 284.80 L 231.50 281.40 L 234.80 279.20 L 243.30 274.80 L 242.10 277.00 L 241.30 279.20 L 240.90 281.40 L 240.90 283.70 L 241.60 286.40 L 242.80 288.90 L 244.60 291.20 L 246.80 293.10 L 249.50 294.80 L 252.70 296.20 L 256.10 297.20 L 259.90 297.80 L 264.00 298.00 L 268.50 297.80 L 273.10 297.00 L 277.30 295.80 L 281.00 294.20 L 284.40 292.20 L 287.20 289.90 L 289.40 287.40 L 291.70 283.20 L 292.30 278.80 L 294.30 278.60 L 295.20 278.00 L 296.10 276.50 L 301.70 274.90 L 308.60 271.60 L 312.10 269.20 L 315.40 266.20 L 317.30 268.10 L 319.60 269.60 L 322.00 270.70 L 324.60 271.30 L 329.10 271.50 L 332.20 270.80 L 335.10 269.60 L 337.60 267.80 L 340.80 264.20 L 342.20 265.10 L 343.10 265.30 L 345.00 264.60 L 347.30 261.70 L 346.10 264.80 L 346.10 266.10 L 346.50 267.30 L 347.40 268.10 L 349.20 268.80 L 350.30 268.60 L 351.90 267.30 L 352.90 264.60 L 354.00 262.90 L 357.00 259.70 L 360.50 260.50 L 362.40 262.30 L 365.70 264.10 L 377.50 267.30 L 383.40 270.50 L 388.70 272.50 L 397.10 274.80 L 402.20 275.70 L 406.40 275.60 L 437.30 270.70 L 434.70 280.40 Z" fill="#683e35" fill-rule="nonzero" group-id="2,7,13" node-id="113" stroke="none" target-height="293.40002" target-width="346.30002" target-x="97.9" target-y="106.8"></path><path d="M 327.70 290.70 L 321.70 286.90 L 320.40 286.50 L 319.20 286.60 L 318.20 287.20 L 317.30 288.20 L 317.00 289.40 L 317.10 290.60 L 317.70 291.70 L 324.10 296.10 L 322.90 297.60 L 322.50 303.00 L 321.80 305.80 L 320.50 309.50 L 318.70 313.30 L 316.00 317.40 L 313.20 320.50 L 310.10 323.10 L 306.70 325.20 L 303.10 326.70 L 299.00 327.80 L 294.60 328.30 L 289.50 328.30 L 284.70 327.90 L 280.20 327.00 L 276.00 325.60 L 272.10 323.80 L 268.40 321.60 L 263.80 317.90 L 259.40 312.90 L 258.20 312.40 L 256.90 312.40 L 255.70 313.00 L 246.30 319.00 L 238.70 322.30 L 234.80 323.30 L 231.40 323.60 L 228.50 323.30 L 225.80 322.50 L 223.70 321.40 L 220.30 318.40 L 218.40 315.70 L 216.90 313.00 L 215.30 308.20 L 214.30 304.70 L 216.60 305.60 L 217.70 305.50 L 218.70 304.90 L 219.50 303.90 L 219.90 302.70 L 219.80 301.50 L 219.20 300.40 L 217.20 298.90 L 214.20 298.30 L 212.10 298.70 L 209.90 299.60 L 207.40 301.30 L 204.60 304.00 L 201.40 307.90 L 200.90 309.10 L 200.90 310.30 L 201.30 311.50 L 202.10 312.40 L 203.00 312.90 L 205.00 312.90 L 206.60 311.70 L 208.80 308.90 L 211.20 315.90 L 214.60 321.60 L 218.80 325.80 L 220.90 327.20 L 224.00 328.70 L 225.70 331.40 L 228.90 335.20 L 233.70 339.80 L 239.80 343.90 L 238.50 347.00 L 237.80 349.90 L 237.60 352.50 L 237.80 355.00 L 238.50 357.40 L 239.60 359.60 L 241.10 361.60 L 243.10 363.50 L 245.80 365.20 L 249.10 366.90 L 253.10 368.30 L 256.10 368.80 L 258.80 368.90 L 262.70 368.60 L 266.50 367.70 L 270.20 366.10 L 273.60 364.10 L 276.80 361.40 L 279.90 358.00 L 283.70 352.40 L 286.40 346.40 L 292.20 344.80 L 297.30 342.80 L 301.90 340.50 L 306.00 337.80 L 309.60 334.70 L 312.80 331.30 L 316.00 326.50 L 319.30 323.40 L 321.70 320.30 L 324.10 316.60 L 327.20 309.90 L 329.00 302.50 L 330.20 303.70 L 332.20 304.20 L 333.40 303.80 L 334.30 303.00 L 334.90 301.90 L 335.00 300.60 L 334.60 298.90 L 333.80 297.10 L 330.50 293.10 L 327.70 290.70 Z M 234.80 332.10 L 232.80 330.00 L 236.70 329.50 L 241.00 328.30 L 245.80 326.40 L 251.10 323.70 L 256.90 320.00 L 259.40 322.60 L 257.90 323.30 L 252.20 328.20 L 247.20 333.30 L 243.10 338.40 L 238.60 335.50 L 234.80 332.10 Z M 274.70 354.30 L 272.60 356.50 L 270.00 358.80 L 265.80 361.10 L 263.40 362.00 L 260.80 362.40 L 258.00 362.50 L 254.80 362.10 L 250.80 360.60 L 247.90 359.00 L 245.90 357.40 L 244.70 355.70 L 244.10 353.90 L 244.00 351.90 L 244.40 349.50 L 245.50 346.70 L 249.10 341.00 L 251.90 337.70 L 256.50 332.90 L 262.50 327.60 L 263.10 325.70 L 266.40 328.00 L 263.00 331.10 L 258.70 335.90 L 256.70 338.80 L 255.10 342.00 L 253.90 346.50 L 253.70 348.90 L 254.00 350.20 L 254.70 351.20 L 255.70 351.80 L 257.00 352.10 L 258.20 351.80 L 259.20 351.10 L 259.90 350.10 L 260.40 346.30 L 261.40 343.70 L 262.70 341.20 L 266.40 336.70 L 271.30 332.30 L 272.30 331.10 L 276.70 332.60 L 281.80 333.90 L 281.40 335.20 L 281.80 337.80 L 280.70 343.30 L 279.30 347.00 L 277.30 350.60 L 274.70 354.30 Z M 288.10 339.30 L 288.20 336.70 L 287.80 334.70 L 294.90 334.70 L 300.00 334.10 L 296.20 336.20 L 292.30 338.00 L 288.10 339.30 Z" fill="#683e35" fill-rule="nonzero" group-id="2,7,13" node-id="115" stroke="none" target-height="82.399994" target-width="134.1" target-x="200.9" target-y="286.5"></path><path d="M 298.50 356.50 L 297.20 356.30 L 296.10 356.70 L 295.10 357.40 L 293.00 361.70 L 291.20 364.50 L 289.00 366.80 L 286.30 368.70 L 283.10 370.30 L 279.40 371.50 L 276.40 372.00 L 273.70 372.30 L 266.50 372.20 L 265.40 372.70 L 264.60 373.60 L 264.20 374.80 L 264.20 376.10 L 264.80 377.20 L 265.70 378.00 L 266.90 378.50 L 271.60 378.80 L 278.10 378.30 L 284.30 376.70 L 287.60 375.30 L 290.50 373.70 L 293.10 371.70 L 295.40 369.40 L 297.40 366.80 L 299.10 363.90 L 300.50 360.60 L 300.70 359.30 L 300.40 358.10 L 299.60 357.20 L 298.50 356.50 Z" fill="#683e35" fill-rule="nonzero" group-id="2,7,13" node-id="117" stroke="none" target-height="22.5" target-width="36.5" target-x="264.2" target-y="356.3"></path><path d="M 199.30 287.70 L 191.60 284.30 L 186.20 282.90 L 183.20 282.70 L 181.90 283.00 L 180.90 283.70 L 180.30 284.70 L 180.00 286.00 L 180.30 287.20 L 181.00 288.20 L 182.00 288.90 L 188.20 289.90 L 192.90 291.70 L 196.80 293.60 L 197.60 293.70 L 199.20 293.30 L 199.90 292.80 L 200.80 290.90 L 200.70 289.70 L 200.20 288.60 L 199.30 287.70 Z" fill="#683e35" fill-rule="nonzero" group-id="2,7,13" node-id="119" stroke="none" target-height="11" target-width="20.800003" target-x="180" target-y="282.7"></path></g><g node-id="161"><path d="M 216.80 258.60 L 216.60 259.80 L 215.90 260.80 L 214.90 261.40 L 213.70 261.70 L 212.50 261.40 L 211.50 260.80 L 210.80 259.80 L 210.60 258.60 L 210.80 257.40 L 211.50 256.40 L 212.50 255.70 L 213.70 255.50 L 214.90 255.70 L 215.90 256.40 L 216.60 257.40 L 216.80 258.60 Z" fill="#f7f4e3" fill-rule="nonzero" group-id="2,7,14" node-id="124" stroke="none" target-height="6.200012" target-width="6.199997" target-x="210.6" target-y="255.5"></path></g><g node-id="162"><path d="M 201.40 269.40 L 201.30 270.00 L 200.60 270.70 L 199.50 270.70 L 198.80 270.00 L 198.80 268.90 L 199.50 268.20 L 200.60 268.20 L 201.30 268.90 L 201.40 269.40 Z" fill="#f7f4e3" fill-rule="nonzero" group-id="2,7,15" node-id="129" stroke="none" target-height="2.5" target-width="2.5999908" target-x="198.8" target-y="268.2"></path></g><g node-id="163"><path d="M 337.00 249.60 L 336.80 250.70 L 336.10 251.70 L 335.10 252.40 L 333.90 252.70 L 332.70 252.40 L 331.70 251.70 L 331.10 250.70 L 330.80 249.60 L 331.10 248.40 L 331.70 247.40 L 332.70 246.70 L 333.90 246.50 L 335.10 246.70 L 336.10 247.40 L 336.80 248.40 L 337.00 249.60 Z" fill="#f7f4e3" fill-rule="nonzero" group-id="2,7,16" node-id="134" stroke="none" target-height="6.199997" target-width="6.200012" target-x="330.8" target-y="246.5"></path></g><g node-id="164"><path d="M 323.70 262.60 L 323.60 263.20 L 322.80 263.90 L 321.80 263.90 L 321.00 263.20 L 321.00 262.10 L 321.80 261.40 L 322.80 261.40 L 323.60 262.10 L 323.70 262.60 Z" fill="#f7f4e3" fill-rule="nonzero" group-id="2,7,17" node-id="139" stroke="none" target-height="2.5" target-width="2.7000122" target-x="321" target-y="261.4"></path></g><g node-id="165"><path d="M 277.50 280.30 L 274.30 279.90 L 267.90 280.60 L 265.00 281.20 L 258.60 283.40 L 263.70 284.30 L 269.20 283.80 L 274.00 282.40 L 277.50 280.30 Z" fill="#f7f4e3" fill-rule="nonzero" group-id="2,7,18" node-id="144" stroke="none" target-height="4.399994" target-width="18.899994" target-x="258.6" target-y="279.9"></path><path d="M 264.70 287.50 L 259.60 287.00 L 256.70 286.00 L 255.60 284.50 L 255.40 283.50 L 255.90 281.70 L 257.30 280.50 L 259.50 279.60 L 264.50 278.00 L 271.10 276.90 L 274.70 276.80 L 278.90 277.40 L 280.20 278.50 L 280.50 279.30 L 280.70 280.20 L 280.30 281.80 L 279.80 282.50 L 277.30 284.40 L 273.00 286.20 L 269.80 287.00 L 264.70 287.50 Z" fill="#f7f4e3" fill-rule="nonzero" group-id="2,7,18" node-id="146" stroke="none" target-height="10.700012" target-width="25.300018" target-x="255.4" target-y="276.8"></path></g></g></g></svg>