<?xml version="1.0" standalone="no"?><!DOCTYPE svg PUBLIC "-//W3C//DTD SVG 1.1//EN" "http://www.w3.org/Graphics/SVG/1.1/DTD/svg11.dtd"><svg t="1747305810320" class="icon" viewBox="0 0 1057 1024" version="1.1" xmlns="http://www.w3.org/2000/svg" p-id="5040" xmlns:xlink="http://www.w3.org/1999/xlink" width="206.4453125" height="200"><path d="M542.532061 951.445202c96.848755 0 271.545766 89.790812 324.415787-50.193167 59.983912-158.786513-145.544261-163.335443-183.183757-363.221565-24.392941-129.556298-141.219119-141.214816-141.219119-141.214816h-36.834719s-131.234711 8.030562-141.219119 141.214816c-14.124494 188.498733-225.630401 242.311248-153.484447 392.938089 47.413026 98.970442 217.22112 20.489554 294.70787 20.489554l36.817504-0.012911z" fill="#D6B794" p-id="5041"></path><path d="M1011.95846 470.635718c-11.624089 74.052459-62.940502 127.499166-114.635634 119.399745-51.708043-8.108028-84.191797-74.70661-72.576315-148.763372 11.628392-74.056762 62.949109-127.499166 114.661455-119.391138 51.682221 8.112331 84.165975 74.710913 72.550494 148.754765zM45.25691 456.227184c10.969938 69.869336 59.390012 120.303506 108.167287 112.664574 48.785882-7.638933 79.440596-70.493362 68.483569-140.367002-10.974241-69.87364-59.394315-120.30781-108.184501-112.655966-48.772971 7.643236-79.427685 70.484754-68.466355 140.358394zM791.612909 182.908325c-10.858043 69.266829-58.860666 119.244815-107.190364 111.666133-48.351216-7.591593-78.739105-69.869336-67.872454-139.123254 10.870954-69.258222 58.86497-119.236208 107.216185-111.644615 48.329698 7.574378 78.70898 69.856425 67.846633 139.101736zM289.42302 180.963087c10.608433 67.562594 57.418952 116.314047 104.569457 108.933332 47.167719-7.406537 76.802475-68.156494 66.206952-135.710481C449.590996 86.623345 402.780477 37.871892 355.612758 45.269821c-47.150505 7.393626-76.78526 68.143583-66.189738 135.693266zM510.427025 879.26482c68.625589 0 192.423638 74.624841 229.886686-41.710724 42.506895-131.95772-97.593282-99.611682-109.385213-322.285494-17.291961-107.668066-120.497169-96.939131-120.497169-96.939131h-26.10148s-92.992708 6.674921-100.067866 117.364131c-27.732553 230.222368-159.883937 201.375176-108.761187 326.558992 33.598393 82.255166 153.923417 17.025137 208.833357 17.025137l26.092872-0.012911z" fill="#E8CAA7" p-id="5042"></path><path d="M542.532061 972.963323c23.523609 0 53.614548 6.098235 85.474277 12.553671 90.208263 18.281795 213.752399 43.32028 259.06956-76.660455 37.075721-98.152753-17.489928-149.305629-70.26527-198.780091-44.830852-42.024889-95.643741-89.6574-111.902832-176.022527-21.651533-115.001442-114.282736-154.061133-160.228227-158.648796a20.872577 20.872577 0 0 0-2.138901-0.107591h-36.834718a22.421881 22.421881 0 0 0-1.316909 0.038733c-51.871581 3.176075-152.352595 40.927465-161.364383 161.084648-5.97343 79.720332-50.141524 133.124002-92.850689 184.76749-50.907569 61.554735-103.545194 125.201031-58.58093 219.075982 41.45681 86.541576 154.21176 62.574694 236.535784 45.071855 29.905883-6.356453 58.150568-12.360008 77.577127-12.360009l36.826111-0.01291z m-0.004304-43.036241l-36.821807 0.008607c-23.945364 0-54.341861 6.45974-86.520058 13.302502-91.761872 19.508328-163.92504 30.30612-188.778468-21.569763-31.541261-65.854055-1.996882-106.635196 52.934575-173.05733 44.813637-54.18693 95.605008-115.595342 102.602701-208.975376 8.486747-113.163794 116.486192-121.065248 121.078159-121.349287a22.421881 22.421881 0 0 1-1.316909 0.038732h36.834718a20.872577 20.872577 0 0 1-2.138901-0.10759c4.032496 0.443273 101.225541 12.321276 122.210012 123.785138 18.867088 100.188368 77.581431 155.231719 124.762061 199.464367 51.996386 48.742846 86.347913 80.946865 59.441655 152.176146-30.129672 79.771975-102.813578 71.465981-210.257856 49.689643-34.037363-6.890102-66.185434-13.405789-94.029882-13.405789z" fill="#6E6E96" p-id="5043"></path><path d="M952.886916 330.716293c13.577934 27.074099 27.672303 62.72532 21.776338 100.317476-11.624089 74.052459-74.642055 128.609501-126.332884 76.918673-3.804404-3.804404-7.320464 40.165723-12.205077 38.151627 13.16909 26.260714 33.95129 44.452133 59.411529 48.445895 51.695132 8.095117 103.011545-45.347286 114.635634-119.404048 10.419074-66.439348-14.675358-126.853622-57.28554-144.429623z m-798.330866-2.642425c10.272751 17.322087 22.167967 38.039733 25.752886 60.84894 10.957027 69.87364-23.355768 165.569024-105.757257 94.671122-11.176512-9.614296 3.877565 45.050336-9.635814 38.001 21.195348 35.737294 53.868462 56.949857 86.718024 51.807026 48.785882-7.638933 79.440596-70.489058 68.48357-140.367002-7.69488-49.001063-33.817878-88.413652-65.561409-104.961086z m239.617179-271.30046c9.627207 16.538827 25.339738 36.202085 28.730994 57.806278 10.595522 67.553987-27.642177 141.352532-103.68291 94.666818-11.878002-7.294643 1.364249 40.540138-11.456247 34.050274 20.47234 35.169216 52.370801 56.127865 84.437103 51.105535 47.167719-7.406537 76.802475-68.156494 66.206953-135.71048-7.509824-47.82187-33.163727-86.188679-64.235893-101.918425z m340.270338-5.14283c11.925342 25.042788 29.535772 57.500721 24.173457 91.675799-10.858043 69.266829-71.771538 115.681414-120.101236 67.347412-3.090002-3.090002-8.478139 42.506895-12.489117 40.996323 12.248114 25.701243 32.113643 43.591408 56.601263 47.434544 48.329698 7.578682 96.33232-42.403608 107.190364-111.666133 9.898335-63.073914-14.430051-120.346543-55.374731-135.787945z" fill="#D6B794" p-id="5044"></path><path d="M990.698557 467.300409c-9.597082 61.150194-50.838711 107.620726-90.049029 101.479455-17.068173-2.676854-28.829977-14.460177-35.689954-23.872203-17.872951-24.526353-24.965323-62.02383-18.957464-100.300262 9.601385-61.14589 50.847318-107.616423 90.070547-101.470847 39.201711 6.158486 64.218678 63.017967 54.6259 124.163857z m-47.959586-166.679359c-64.408037-10.100606-125.575446 50.214685-139.248059 137.311428-7.733612 49.310924 2.242188 98.772475 26.695379 132.319225 16.706669 22.925405 38.771349 37.114454 63.80553 41.039359 64.39943 10.091998 125.553928-50.227596 139.226542-137.320036 13.659703-87.09244-26.075658-163.23646-90.479392-173.349976zM23.997008 459.566797c13.005552 82.849066 71.319658 140.207768 132.75389 130.584864 23.941061-3.748457 45.033122-17.304872 60.99096-39.188801 23.261088-31.911372 32.76349-78.924161 25.417204-125.769109-13.005552-82.866281-71.328265-140.220678-132.771105-130.58056-23.936757 3.748457-45.020211 17.300569-60.978049 39.1888-23.261088 31.907069-32.759186 78.924161-25.4129 125.764806zM117.058574 337.128693c36.352712-5.702302 74.629144 37.682532 83.58929 94.735676 5.616229 35.806152-0.994137 70.854866-17.679288 93.741538-6.339238 8.697624-17.188674 19.572882-32.875384 22.030252-36.348409 5.689391-74.624841-37.695443-83.580682-94.744283-5.616229-35.806152 0.989834-70.850563 17.67068-93.737236 6.339238-8.693321 17.184371-19.568579 32.875384-22.025947zM770.353006 179.573017c-8.852555 56.446333-46.677106 99.374983-82.599456 93.741538-35.930957-5.642051-58.804719-58.090317-49.94786-114.532346 8.861162-56.442029 46.698624-99.362072 82.620974-93.724324 15.488743 2.427244 26.19616 13.173393 32.453629 21.759123 16.500095 22.64567 23.032996 57.315665 17.472713 92.756009zM727.097281 22.546686c-61.003871-9.575563-118.900525 47.335561-131.811397 129.564906-12.897961 82.229344 24.788874 154.142902 85.797049 163.718465 61.008174 9.566956 118.891918-47.357079 131.785575-129.590727 7.290339-46.461925-2.134598-93.104602-25.210629-124.766364-15.845944-21.737605-36.787378-35.199341-60.560598-38.92628zM268.167421 184.298396C280.802861 264.79338 337.537537 320.5124 397.323482 311.152018c59.807463-9.390508 96.762683-79.802101 84.13585-160.305692C468.815285 70.338431 412.076305 14.632322 352.277449 24.014222c-23.33425 3.65808-43.879751 16.861599-59.420137 38.181753-22.589723 30.9947-31.820996 76.638937-24.689891 122.102421z m90.780646-117.768672c34.760371-5.452692 71.392819 36.214996 79.99146 90.991523 8.590034 54.772223-13.521987 105.658274-48.286662 111.115269-34.74746 5.439781-71.371301-36.236514-79.974246-91.008737-5.401048-34.428992 0.93819-68.10485 16.951975-90.079155 6.050895-8.301691 16.392504-18.677728 31.317473-21.0189z" fill="#6E6E96" p-id="5045"></path></svg>